HIERARCHY
ROOT Hips
{
	OFFSET 0.000000 0.000000 0.000000
	CHANNELS 6 Xposition Yposition Zposition Xrotation Yrotation Zrotation
	JOINT LeftUpLeg_virtual
	{
		OFFSET 0.000000 0.000000 0.000000
		CHANNELS 3 Xrotation Yrotation Zrotation
		JOINT LeftUpLeg
		{
			OFFSET 13.026900 -6.336304 -1.092800
			CHANNELS 3 Xrotation Yrotation Zrotation
			JOINT LeftLeg
			{
				OFFSET 0.524474 -46.096886 9.782700
				CHANNELS 3 Xrotation Yrotation Zrotation
				JOINT LeftFoot
				{
					OFFSET -0.524474 -53.427422 -12.948200
					CHANNELS 3 Xrotation Yrotation Zrotation
					JOINT LeftToeBase
					{
						OFFSET 0.192200 -14.009700 16.364100
						CHANNELS 3 Xrotation Yrotation Zrotation
						JOINT LeftToe_End
						{
							OFFSET -1.784700 -0.561700 9.474800
							CHANNELS 3 Xrotation Yrotation Zrotation
							End Site
							{
								OFFSET 0 0 0
							}
						}
					}
				}
			}
		}
	}
	JOINT RightUpLeg_virtual
	{
		OFFSET 0.000000 0.000000 0.000000
		CHANNELS 3 Xrotation Yrotation Zrotation
		JOINT RightUpLeg
		{
			OFFSET -12.883000 -6.336304 -1.092800
			CHANNELS 3 Xrotation Yrotation Zrotation
			JOINT RightLeg
			{
				OFFSET -0.524587 -46.096825 9.782800
				CHANNELS 3 Xrotation Yrotation Zrotation
				JOINT RightFoot
				{
					OFFSET 0.524587 -53.427383 -12.948300
					CHANNELS 3 Xrotation Yrotation Zrotation
					JOINT RightToeBase
					{
						OFFSET -0.192200 -14.009700 16.364100
						CHANNELS 3 Xrotation Yrotation Zrotation
						JOINT RightToe_End
						{
							OFFSET 1.784700 -0.561700 9.474800
							CHANNELS 3 Xrotation Yrotation Zrotation
							End Site
							{
								OFFSET 0 0 0
							}
						}
					}
				}
			}
		}
	}
	JOINT Spine_virtual
	{
		OFFSET 0.000000 0.000000 0.000000
		CHANNELS 3 Xrotation Yrotation Zrotation
		JOINT Spine
		{
			OFFSET 0.072000 7.257294 -0.789700
			CHANNELS 3 Xrotation Yrotation Zrotation
			JOINT Spine1
			{
				OFFSET 0.000000 12.508769 -0.658067
				CHANNELS 3 Xrotation Yrotation Zrotation
				JOINT Spine1_split
				{
					OFFSET 0.000000 12.508769 -0.658067
					CHANNELS 3 Xrotation Yrotation Zrotation
					JOINT Spine2
					{
						OFFSET 0.000000 12.508769 -0.658067
						CHANNELS 3 Xrotation Yrotation Zrotation
						JOINT Neck_virtual
						{
							OFFSET 0.000000 0.000000 0.000000
							CHANNELS 3 Xrotation Yrotation Zrotation
							JOINT Neck
							{
								OFFSET 0.000000 14.033295 7.520400
								CHANNELS 3 Xrotation Yrotation Zrotation
								JOINT Head
								{
									OFFSET 0.000000 8.198502 5.703100
									CHANNELS 3 Xrotation Yrotation Zrotation
									JOINT HeadTop_End
									{
										OFFSET 0.000000 17.760803 13.332701
										CHANNELS 3 Xrotation Yrotation Zrotation
										End Site
										{
											OFFSET 0 0 0
										}
									}
								}
							}
						}
						JOINT LeftShoulder_virtual
						{
							OFFSET 0.000000 0.000000 0.000000
							CHANNELS 3 Xrotation Yrotation Zrotation
							JOINT LeftShoulder
							{
								OFFSET 6.292450 5.785301 -0.669000
								CHANNELS 3 Xrotation Yrotation Zrotation
								JOINT LeftShoulder_split
								{
									OFFSET 6.292450 5.785301 -0.669000
									CHANNELS 3 Xrotation Yrotation Zrotation
									JOINT LeftArm
									{
										OFFSET 13.907140 -6.093903 1.965100
										CHANNELS 3 Xrotation Yrotation Zrotation
										JOINT LeftForeArm
										{
											OFFSET 34.140198 0.000000 0.000000
											CHANNELS 3 Xrotation Yrotation Zrotation
											JOINT LeftHand
											{
												OFFSET 40.960209 0.000000 0.000000
												CHANNELS 3 Xrotation Yrotation Zrotation
												End Site
												{
													OFFSET 0 0 0
												}
											}
										}
									}
								}
							}
						}
						JOINT RightShoulder_virtual
						{
							OFFSET 0.000000 0.000000 0.000000
							CHANNELS 3 Xrotation Yrotation Zrotation
							JOINT RightShoulder
							{
								OFFSET -6.292450 5.785301 -0.669000
								CHANNELS 3 Xrotation Yrotation Zrotation
								JOINT RightShoulder_split
								{
									OFFSET -6.292450 5.785301 -0.669000
									CHANNELS 3 Xrotation Yrotation Zrotation
									JOINT RightArm
									{
										OFFSET -13.907140 -6.093903 1.965100
										CHANNELS 3 Xrotation Yrotation Zrotation
										JOINT RightForeArm
										{
											OFFSET -34.140198 0.000000 0.000000
											CHANNELS 3 Xrotation Yrotation Zrotation
											JOINT RightHand
											{
												OFFSET -40.960209 0.000000 0.000000
												CHANNELS 3 Xrotation Yrotation Zrotation
												End Site
												{
													OFFSET 0 0 0
												}
											}
										}
									}
								}
							}
						}
					}
				}
			}
		}
	}
}
MOTION
Frames: 8
Frame Time: 0.03333333
-6.520504 156.162872 -11.549725 0.000000 0.000000 0.000000 4.939680 -9.087472 -0.952836 -147.829473 -26.513184 15.562714 126.534350 -11.459906 -4.193562 41.229293 -17.052170 -9.277870 1.313459 0.280418 0.769964 0.000000 0.000000 0.000000 7.565052 -15.027118 -0.920931 -118.057402 44.336322 -22.204551 118.663977 3.040304 -1.442374 26.688138 22.070214 46.403609 1.082425 0.027141 0.843521 0.000000 0.000000 0.000000 8.972820 -17.942263 -0.068564 31.185308 6.300589 0.958201 5.226535 1.084398 1.115127 -0.715036 0.952318 -0.460318 0.000000 0.000000 0.000000 7.962776 1.052191 1.887000 7.439168 -0.155666 2.366648 -2.417009 36.079491 -24.171488 0.000000 0.000000 0.000000 6.961783 1.561876 0.584104 1.339480 -4.502393 10.470152 4.114446 -1.427690 2.580084 -37.577945 18.777471 15.125896 -3.295283 -7.642568 -2.002203 0.000000 0.000000 0.000000 8.023629 1.566790 1.244211 -1.693465 -4.500188 -28.794220 3.614750 0.159198 -2.336818 -50.430456 7.607514 -8.159146 1.298689 20.951522 -1.203479 0.000000 0.000000 0.000000 
-6.491539 154.578934 -10.272045 0.000000 0.000000 0.000000 4.839803 -10.040005 -1.030040 -148.900296 -25.899164 16.945387 126.992956 -14.728000 -3.969851 43.611690 -20.053811 -3.383886 -0.361072 0.005741 0.945407 0.000000 0.000000 0.000000 7.738994 -14.137978 -1.009767 -111.497067 41.658143 -28.788032 117.694500 2.585023 -1.537244 22.760311 19.964788 46.011812 0.743868 0.021507 0.774674 0.000000 0.000000 0.000000 9.193850 -16.796152 -0.474835 30.610685 7.406710 0.767760 4.767194 1.419002 0.961389 -0.380124 0.697912 0.574276 0.000000 0.000000 0.000000 8.330308 1.072294 1.717126 8.851534 -0.834054 2.543948 -1.156099 34.916241 -24.846949 0.000000 0.000000 0.000000 6.663640 1.736190 0.247990 1.343653 -4.030868 9.622234 3.887986 -2.319415 1.445197 -35.976071 16.557770 21.062010 -3.206498 -7.343480 -1.472511 0.000000 0.000000 0.000000 8.391362 1.678382 1.029065 -1.560660 -3.144534 -29.953569 2.741891 0.596271 -2.726333 -44.012165 3.098175 -15.320688 1.534259 22.187924 -1.436944 0.000000 0.000000 0.000000 
-6.661242 150.842087 -9.329174 0.000000 0.000000 0.000000 4.341221 -11.617344 -1.777684 -145.084037 -25.596530 19.322532 125.643707 -17.041394 -3.375905 44.246362 -21.782346 1.922449 -4.704501 -0.361333 1.136010 0.000000 0.000000 0.000000 7.114822 -13.345731 -1.865784 -103.517596 36.305058 -32.804463 115.926205 2.438525 -1.035519 15.928976 16.114766 43.674774 3.121144 0.177609 0.719386 0.000000 0.000000 0.000000 8.467870 -14.706818 -1.638629 29.509685 8.270712 1.096903 4.303979 1.669138 0.705793 -0.066966 0.826215 0.955430 0.000000 0.000000 0.000000 8.392449 1.012823 1.381373 9.496026 -1.208032 3.003996 -0.234838 33.345482 -24.721214 0.000000 0.000000 0.000000 6.286590 1.790481 -0.082653 1.223434 -3.347589 8.909016 3.496640 -3.599566 -0.180723 -33.666658 13.640466 25.403509 -2.708972 -6.695460 -0.740609 0.000000 0.000000 0.000000 8.513201 1.598568 0.616543 -0.973546 -1.013997 -29.413926 2.219526 1.476932 -2.960496 -38.053156 -0.783326 -19.689726 1.178594 25.792534 -1.397278 0.000000 0.000000 0.000000 
-7.241791 145.518158 -8.372341 0.000000 0.000000 0.000000 3.092172 -12.858399 -3.203658 -136.644846 -24.919020 23.177595 122.144997 -17.545574 -3.608927 43.511826 -20.963314 6.499757 -7.905491 -0.531545 0.792451 0.000000 0.000000 0.000000 5.585490 -12.699530 -3.210798 -94.746069 29.124364 -33.827031 113.379105 2.766779 -0.106688 8.911743 12.411590 40.009950 5.964170 0.377203 0.544187 0.000000 0.000000 0.000000 6.975879 -12.147260 -3.257058 27.913457 8.636439 1.900140 3.802826 1.801098 0.471123 0.157369 1.241570 0.942448 0.000000 0.000000 0.000000 8.063159 0.921598 1.026406 9.549597 -1.188982 3.626666 0.168301 31.772903 -23.953217 0.000000 0.000000 0.000000 5.707572 1.789513 -0.303963 0.977919 -2.594341 8.305389 2.925942 -4.794613 -1.430771 -31.344329 12.253852 27.718342 -1.907222 -5.112523 -0.027781 0.000000 0.000000 0.000000 8.212079 1.402286 0.221591 -0.215164 1.130106 -27.358990 2.455440 2.006891 -2.733060 -34.501130 -4.384711 -20.411341 0.375400 30.139265 -1.233906 0.000000 0.000000 0.000000 
-7.829131 139.029266 -7.724125 0.000000 0.000000 0.000000 1.352940 -13.630384 -4.862104 -123.952087 -22.786365 28.182698 115.721341 -15.642236 -5.008050 41.319059 -17.319927 9.631362 -7.719631 -0.449638 -0.172402 0.000000 0.000000 0.000000 3.570313 -12.551780 -4.746868 -85.465788 21.351537 -32.292151 109.103277 3.760458 0.696110 4.159867 10.515841 37.382066 5.878376 0.466597 0.288498 0.000000 0.000000 0.000000 4.843854 -9.971193 -4.850472 25.883564 8.270166 2.833578 3.180825 1.785052 0.348618 1.301745 1.569587 0.536936 0.000000 0.000000 0.000000 7.272254 0.847189 0.772726 9.237542 -0.937567 4.133296 0.082105 30.330773 -22.694921 0.000000 0.000000 0.000000 5.078136 1.750851 -0.290638 0.772140 -1.609982 7.689266 2.321956 -5.162940 -2.015962 -29.090612 13.661854 27.134217 -1.163003 -3.051767 0.377777 0.000000 0.000000 0.000000 7.467305 1.202667 -0.042446 0.358274 2.513063 -24.224029 2.535780 2.300411 -2.050292 -33.380682 -8.984987 -17.907798 -0.690307 33.178132 -1.113121 0.000000 0.000000 0.000000 
-8.596779 132.029556 -6.817173 0.000000 0.000000 0.000000 -0.191123 -13.531650 -6.195196 -108.279406 -17.783871 32.117137 105.906448 -11.173481 -6.783336 37.005118 -12.122563 10.531752 -5.088763 -0.267396 -1.053592 0.000000 0.000000 0.000000 1.570769 -12.270519 -6.039310 -74.879774 14.017076 -29.161940 102.196330 5.150219 1.322582 2.187503 10.105161 36.310279 2.181158 0.419030 0.081853 0.000000 0.000000 0.000000 2.697327 -8.172463 -6.051740 23.718687 7.228354 3.597435 2.544735 1.692495 0.361642 2.182684 1.886145 0.223860 0.000000 0.000000 0.000000 6.142759 0.803478 0.656478 8.678116 -0.451179 4.392411 0.078398 29.252437 -21.323362 0.000000 0.000000 0.000000 4.409933 1.680209 -0.108024 0.589085 -0.286512 6.857877 1.633284 -5.038342 -1.543098 -26.240586 18.548822 22.203757 -0.729924 -1.437387 0.407017 0.000000 0.000000 0.000000 6.447911 1.053419 -0.181971 0.682185 2.757242 -20.442087 2.430981 1.750220 -1.556770 -33.025990 -15.343636 -12.166700 -1.707431 33.623515 -1.190526 0.000000 0.000000 0.000000 
-9.359237 124.916580 -6.251945 0.000000 0.000000 0.000000 -1.555172 -12.526702 -6.893450 -91.289030 -10.638134 33.052317 93.338975 -5.554222 -6.730842 30.666084 -7.950382 8.495318 -3.559851 -0.183523 -0.907768 0.000000 0.000000 0.000000 0.045786 -10.863207 -6.711758 -63.031772 7.567029 -25.000852 92.782567 5.940972 2.157949 1.044814 9.253410 34.120951 -1.654535 0.294440 0.142658 0.000000 0.000000 0.000000 0.980351 -7.054327 -6.735332 21.839504 5.651156 3.831946 2.030420 1.509743 0.416591 2.341411 1.848167 0.609145 0.000000 0.000000 0.000000 4.927112 0.773706 0.578984 7.740629 0.104981 4.313182 0.320356 28.547732 -19.973256 0.000000 0.000000 0.000000 3.750042 1.575743 0.052393 0.431748 1.259797 5.656244 0.671206 -4.444023 -0.641571 -22.049295 25.247904 11.672519 -0.571748 -0.696398 0.156077 0.000000 0.000000 0.000000 5.348722 0.929139 -0.230505 0.765009 1.798316 -16.737112 2.399652 1.217214 -1.223937 -30.529843 -23.387157 -2.604643 -2.274442 31.755537 -1.604109 0.000000 0.000000 0.000000 
-9.824620 117.419128 -5.925133 0.000000 0.000000 0.000000 -2.464587 -11.064662 -6.900974 -75.209781 -3.985072 29.690074 80.287583 -0.581811 -3.974908 22.476056 -6.164922 3.703769 -5.022459 -0.317179 0.312008 0.000000 0.000000 0.000000 -1.073497 -8.664252 -6.784636 -51.083938 2.763818 -20.280094 81.821848 5.397753 3.483975 -1.709713 6.484659 28.889549 -2.614764 0.161854 0.593537 0.000000 0.000000 0.000000 -0.084997 -6.389541 -6.756679 20.782855 3.828768 3.389891 1.717053 1.274565 0.385636 2.096042 1.925208 1.033074 0.000000 0.000000 0.000000 3.850545 0.725105 0.407524 6.148179 0.710529 4.002609 0.815064 28.137224 -18.725073 0.000000 0.000000 0.000000 3.293596 1.369448 0.035166 0.330640 2.955128 4.327633 -0.112500 -3.702275 -0.018438 -15.746448 30.492007 -4.304768 -0.802095 -1.495971 -0.268138 0.000000 0.000000 0.000000 4.507190 0.798130 -0.321112 0.719830 0.146988 -13.474905 2.072131 1.358670 -1.456961 -22.655418 -30.877059 12.174768 -2.322845 29.859569 -2.095632 0.000000 0.000000 0.000000 
